<?xml version="1.0" encoding="UTF-8"?>
<svg xmlns="http://www.w3.org/2000/svg" xmlns:xlink="http://www.w3.org/1999/xlink" width="0" height="0">
<defs>
<symbol fill="none" viewBox="0 0 24 24" id="x"><path stroke-linecap="round" stroke-linejoin="round" d="M6 18 18 6M6 6l12 12"></path></symbol>
<symbol fill="none" viewBox="0 -9 58 58" id="visa"><rect width="57" height="39" x=".5" y=".5" fill="#fff" stroke="#F3F3F3" rx="3.5"></rect><path fill="#15195A" d="M25.752 27.433H21.89l2.415-14h3.862l-2.415 14ZM39.75 13.775a10.074 10.074 0 0 0-3.464-.596c-3.813 0-6.498 1.906-6.515 4.632-.031 2.01 1.923 3.127 3.385 3.798 1.494.685 2.001 1.132 2.001 1.743-.015.938-1.207 1.37-2.319 1.37-1.541 0-2.367-.223-3.623-.744l-.508-.224-.54 3.143c.905.387 2.574.73 4.306.745 4.052 0 6.69-1.877 6.72-4.782.016-1.593-1.016-2.815-3.24-3.813-1.351-.64-2.178-1.072-2.178-1.727.016-.596.7-1.207 2.224-1.207a6.935 6.935 0 0 1 2.877.536l.349.15.525-3.024Z"></path><path fill="#15195A" fill-rule="evenodd" d="M46.662 13.432h2.987l3.115 14.001h-3.576s-.35-1.609-.46-2.1H43.77l-.81 2.1h-4.052l5.736-12.839c.397-.909 1.097-1.162 2.018-1.162Zm-.238 5.124s-1.224 3.113-1.542 3.917h3.21c-.159-.7-.89-4.051-.89-4.051l-.27-1.206c-.114.31-.278.737-.389 1.025-.075.196-.126.327-.12.315ZM5.159 13.432h6.213c.842.03 1.525.283 1.747 1.177l1.35 6.433.001.001.413 1.937 3.782-9.548h4.083l-6.07 13.986h-4.083L9.153 15.253c-1.187-.65-2.542-1.174-4.058-1.538l.064-.283Z" clip-rule="evenodd"></path></symbol>
<symbol fill="none" stroke="currentColor" viewBox="0 0 24 24" id="user"><path stroke-linecap="round" stroke-linejoin="round" d="M15.75 6a3.75 3.75 0 1 1-7.5 0 3.75 3.75 0 0 1 7.5 0ZM4.501 20.118a7.5 7.5 0 0 1 14.998 0A17.933 17.933 0 0 1 12 21.75c-2.676 0-5.216-.584-7.499-1.632Z"></path></symbol>
<symbol fill="none" viewBox="0 0 24 24" id="trash"><path stroke-linecap="round" stroke-linejoin="round" d="m14.74 9-.346 9m-4.788 0L9.26 9m9.968-3.21c.342.052.682.107 1.022.166m-1.022-.165L18.16 19.673a2.25 2.25 0 0 1-2.244 2.077H8.084a2.25 2.25 0 0 1-2.244-2.077L4.772 5.79m14.456 0a48.108 48.108 0 0 0-3.478-.397m-12 .562c.34-.059.68-.114 1.022-.165m0 0a48.11 48.11 0 0 1 3.478-.397m7.5 0v-.916c0-1.18-.91-2.164-2.09-2.201a51.964 51.964 0 0 0-3.32 0c-1.18.037-2.09 1.022-2.09 2.201v.916m7.5 0a48.667 48.667 0 0 0-7.5 0"></path></symbol>
<symbol fill="none" viewBox="0 0 24 24" id="settings"><path stroke-linecap="round" stroke-linejoin="round" d="M9.594 3.94c.09-.542.56-.94 1.11-.94h2.593c.55 0 1.02.398 1.11.94l.213 1.281c.063.374.313.686.645.87.074.04.147.083.22.127.325.196.72.257 1.075.124l1.217-.456a1.125 1.125 0 0 1 1.37.49l1.296 2.247a1.125 1.125 0 0 1-.26 1.431l-1.003.827c-.293.241-.438.613-.43.992a7.723 7.723 0 0 1 0 .255c-.008.378.137.75.43.991l1.004.827c.424.35.534.955.26 1.43l-1.298 2.247a1.125 1.125 0 0 1-1.369.491l-1.217-.456c-.355-.133-.75-.072-1.076.124a6.47 6.47 0 0 1-.22.128c-.331.183-.581.495-.644.869l-.213 1.281c-.09.543-.56.94-1.11.94h-2.594c-.55 0-1.019-.398-1.11-.94l-.213-1.281c-.062-.374-.312-.686-.644-.87a6.52 6.52 0 0 1-.22-.127c-.325-.196-.72-.257-1.076-.124l-1.217.456a1.125 1.125 0 0 1-1.369-.49l-1.297-2.247a1.125 1.125 0 0 1 .26-1.431l1.004-.827c.292-.24.437-.613.43-.991a6.932 6.932 0 0 1 0-.255c.007-.38-.138-.751-.43-.992l-1.004-.827a1.125 1.125 0 0 1-.26-1.43l1.297-2.247a1.125 1.125 0 0 1 1.37-.491l1.216.456c.356.133.751.072 1.076-.124.072-.044.146-.086.22-.128.332-.183.582-.495.644-.869l.214-1.28Z"></path><path stroke-linecap="round" stroke-linejoin="round" d="M15 12a3 3 0 1 1-6 0 3 3 0 0 1 6 0Z"></path></symbol>
<symbol fill="none" stroke="currentColor" viewBox="0 0 24 24" id="plus"><path stroke-linecap="round" stroke-linejoin="round" d="M12 4.5v15m7.5-7.5h-15"></path></symbol>
<symbol fill="none" stroke="currentColor" stroke-width="1.5" viewBox="0 0 24 24" id="pencil"><path stroke-linecap="round" stroke-linejoin="round" d="m16.862 4.487 1.687-1.688a1.875 1.875 0 1 1 2.652 2.652L6.832 19.82a4.5 4.5 0 0 1-1.897 1.13l-2.685.8.8-2.685a4.5 4.5 0 0 1 1.13-1.897L16.863 4.487Zm0 0L19.5 7.125"></path></symbol>
<symbol viewBox="0 -139.5 750 750" id="mastercard"><g fill="none" fill-rule="nonzero"><rect width="750" height="471" fill="#000" rx="40"></rect><path fill="#D9222A" d="M434.008 235.5c0 99.142-80.37 179.504-179.508 179.504S75 334.642 75 235.5c0-99.133 80.362-179.504 179.5-179.504 99.137 0 179.508 80.37 179.508 179.504"></path><path fill="#EE9F2D" d="M495.492 55.996c-46.38 0-88.642 17.596-120.5 46.466a182.43 182.43 0 0 0-18.125 18.996h36.266a181.8 181.8 0 0 1 13.684 19.013h-63.634a178.716 178.716 0 0 0-10.341 19.008h84.312a179.19 179.19 0 0 1 7.6 19.004h-99.512a177.294 177.294 0 0 0-5.217 19.009h109.942a180.428 180.428 0 0 1 4.041 38.008c0 19.933-3.254 39.113-9.254 57.02h-99.512a177.651 177.651 0 0 0 7.595 19.01h84.317a179.97 179.97 0 0 1-10.346 19.012h-63.625c4.154 6.629 8.73 12.979 13.684 18.996h36.258a179.297 179.297 0 0 1-18.13 19.012c31.86 28.867 74.118 46.454 120.497 46.454C594.629 415.004 675 334.642 675 235.5c0-99.13-80.37-179.504-179.508-179.504"></path><path fill="#000" d="M651.075 335.558c0-3.2 2.592-5.8 5.796-5.8s5.796 2.6 5.796 5.8c0 3.2-2.592 5.8-5.796 5.8a5.798 5.798 0 0 1-5.796-5.8Zm5.796 4.409a4.41 4.41 0 0 0 4.408-4.409 4.404 4.404 0 0 0-4.408-4.404 4.398 4.398 0 0 0-4.404 4.404 4.404 4.404 0 0 0 4.404 4.409Zm-.783-1.859H654.9v-5.095h2.15c.45 0 .908 0 1.304.254.413.279.646.77.646 1.279 0 .57-.337 1.104-.883 1.312l.937 2.25h-1.316l-.78-2.016h-.87v2.016Zm0-2.891h.658c.246 0 .504.02.725-.1.196-.125.296-.359.296-.584 0-.195-.121-.42-.288-.516-.208-.13-.537-.1-.758-.1h-.633v1.3ZM212.587 255.154c-2.045-.237-2.945-.3-4.35-.3-11.045 0-16.637 3.788-16.637 11.267 0 4.612 2.73 7.546 6.987 7.546 7.938 0 13.659-7.559 14-18.513Zm14.171 32.996h-16.146l.371-7.675c-4.925 6.067-11.496 8.95-20.425 8.95-10.562 0-17.804-8.25-17.804-20.23 0-18.024 12.596-28.54 34.217-28.54 2.208 0 5.041.2 7.941.57.605-2.442.763-3.487.763-4.8 0-4.908-3.396-6.738-12.5-6.738-9.533-.108-17.396 2.271-20.625 3.334.204-1.23 2.7-16.658 2.7-16.658 9.712-2.846 16.117-3.917 23.325-3.917 16.733 0 25.596 7.512 25.58 21.712.032 3.805-.597 8.5-1.58 14.671-1.692 10.73-5.32 33.717-5.817 39.321ZM164.6 288.15h-19.488l11.163-69.996-24.925 69.996h-13.279l-1.642-69.596-11.733 69.596H86.454l15.238-91.054h28.02l1.7 50.967 17.092-50.967h31.167L164.6 288.15M519.575 255.154c-2.037-.237-2.942-.3-4.342-.3-11.041 0-16.633 3.788-16.633 11.267 0 4.612 2.725 7.546 6.983 7.546 7.938 0 13.663-7.559 13.992-18.513Zm14.183 32.996h-16.145l.366-7.675c-4.925 6.067-11.5 8.95-20.42 8.95-10.567 0-17.8-8.25-17.8-20.23 0-18.024 12.587-28.54 34.212-28.54 2.208 0 5.037.2 7.933.57.604-2.442.763-3.487.763-4.8 0-4.908-3.392-6.738-12.496-6.738-9.533-.108-17.388 2.271-20.63 3.334.205-1.23 2.709-16.658 2.709-16.658 9.713-2.846 16.113-3.917 23.313-3.917 16.741 0 25.604 7.512 25.587 21.712.033 3.805-.596 8.5-1.58 14.671-1.682 10.73-5.32 33.717-5.812 39.321ZM313.367 287.025c-5.334 1.68-9.492 2.4-14 2.4-9.963 0-15.4-5.725-15.4-16.267-.142-3.27 1.433-11.879 2.67-19.737 1.125-6.917 8.45-50.53 8.45-50.53h19.371l-2.262 11.209h11.7l-2.642 17.796h-11.742c-2.25 14.083-5.454 31.625-5.491 33.95 0 3.817 2.037 5.483 6.67 5.483 2.221 0 3.942-.225 5.255-.7l-2.58 16.396M372.758 286.425c-6.654 2.033-13.075 3.017-19.879 3-21.683-.02-32.987-11.346-32.987-33.033 0-25.313 14.379-43.946 33.9-43.946 15.97 0 26.17 10.433 26.17 26.796 0 5.429-.7 10.729-2.387 18.212H339c-1.304 10.742 5.57 15.217 16.837 15.217 6.934 0 13.188-1.43 20.142-4.663l-3.22 18.417Zm-10.887-43.9c.108-1.542 2.054-13.217-9.013-13.217-6.17 0-10.583 4.704-12.379 13.217h21.392ZM238.446 237.508c0 9.367 4.541 15.825 14.841 20.675 7.892 3.709 9.113 4.809 9.113 8.171 0 4.617-3.48 6.7-11.192 6.7-5.812 0-11.22-.908-17.458-2.92 0 0-2.563 16.32-2.68 17.1 4.43.966 8.38 1.862 20.28 2.191 20.562 0 30.058-7.83 30.058-24.75 0-10.175-3.975-16.146-13.737-20.633-8.171-3.75-9.109-4.588-9.109-8.046 0-4.004 3.238-6.046 9.538-6.046 3.825 0 9.05.408 14 1.113l2.775-17.175c-5.046-.8-12.696-1.442-17.15-1.442-21.8 0-29.346 11.387-29.28 25.062M467.533 214.392c5.413 0 10.459 1.42 17.413 4.92l3.187-19.762c-2.854-1.12-12.904-7.7-21.416-7.7-13.042 0-24.067 6.47-31.821 17.15-11.309-3.746-15.959 3.825-21.659 11.367l-5.062 1.179c.383-2.483.73-4.95.613-7.446h-17.896c-2.446 22.917-6.78 46.13-10.171 69.075l-.884 4.975h19.496c3.254-21.142 5.038-34.68 6.121-43.842l7.342-4.083c1.096-4.08 4.529-5.458 11.416-5.292a82.966 82.966 0 0 0-1.383 15.184c0 24.225 13.071 39.308 34.05 39.308 5.404 0 10.042-.712 17.221-2.658l3.43-20.759c-6.46 3.18-11.76 4.675-16.56 4.675-11.328 0-18.183-8.362-18.183-22.183 0-20.05 10.196-34.108 24.746-34.108"></path><path fill="#FFF" d="M170.208 282.742h-19.491l11.17-69.988-24.925 69.988h-13.283l-1.642-69.588-11.733 69.588H92.062L107.3 191.7h28.021l.787 56.363 18.904-56.363h30.267l-15.071 91.042"></path><path fill="#000" d="m632.52 197.096-4.32 26.308c-5.33-7.012-11.054-12.087-18.612-12.087-9.834 0-18.784 7.454-24.642 18.425-8.158-1.692-16.596-4.563-16.596-4.563l-.004.067c.658-6.133.92-9.875.862-11.146h-17.9c-2.437 22.917-6.77 46.13-10.158 69.075l-.892 4.975h19.492c2.633-17.096 4.65-31.292 6.133-42.55 6.659-6.017 9.992-11.267 16.721-10.917-2.979 7.205-4.725 15.505-4.725 24.017 0 18.513 9.367 30.725 23.534 30.725 7.141 0 12.62-2.462 17.966-8.17l-.912 6.883H636.9l14.842-91.042H632.52Zm-24.37 73.942c-6.633 0-9.983-4.909-9.983-14.596 0-14.554 6.27-24.875 15.112-24.875 6.696 0 10.321 5.104 10.321 14.508 0 14.68-6.37 24.963-15.45 24.963Z"></path><path fill="#FFF" d="M218.192 249.758c-2.042-.237-2.946-.3-4.346-.3-11.046 0-16.634 3.788-16.634 11.267 0 4.604 2.73 7.546 6.98 7.546 7.945 0 13.666-7.558 14-18.513Zm14.179 32.984h-16.146l.367-7.663c-4.921 6.054-11.5 8.95-20.421 8.95-10.567 0-17.804-8.25-17.804-20.229 0-18.033 12.591-28.542 34.216-28.542 2.209 0 5.042.2 7.938.571.604-2.442.762-3.487.762-4.808 0-4.908-3.391-6.73-12.496-6.73-9.537-.108-17.395 2.272-20.629 3.322.204-1.226 2.7-16.638 2.7-16.638 9.709-2.858 16.121-3.93 23.321-3.93 16.738 0 25.604 7.518 25.588 21.705.029 3.82-.605 8.512-1.584 14.675-1.687 10.725-5.32 33.725-5.812 39.317ZM493.746 194.15l-3.192 19.767c-6.95-3.496-12-4.921-17.408-4.921-14.55 0-24.75 14.058-24.75 34.108 0 13.821 6.858 22.18 18.183 22.18 4.8 0 10.096-1.492 16.554-4.676l-3.42 20.75c-7.184 1.959-11.817 2.671-17.226 2.671-20.975 0-34.05-15.083-34.05-39.308 0-32.55 18.059-55.3 43.888-55.3 8.508 0 18.563 3.608 21.42 4.729M525.188 249.758c-2.042-.237-2.942-.3-4.346-.3-11.042 0-16.634 3.788-16.634 11.267 0 4.604 2.73 7.546 6.984 7.546 7.937 0 13.662-7.558 13.996-18.513Zm14.179 32.984h-16.15l.37-7.663c-4.924 6.054-11.5 8.95-20.42 8.95-10.563 0-17.804-8.25-17.804-20.229 0-18.033 12.595-28.542 34.212-28.542 2.213 0 5.042.2 7.942.571.6-2.442.762-3.487.762-4.808 0-4.908-3.391-6.73-12.496-6.73-9.533-.108-17.395 2.272-20.629 3.322.204-1.226 2.704-16.638 2.704-16.638 9.709-2.858 16.117-3.93 23.317-3.93 16.742 0 25.604 7.518 25.583 21.705.034 3.82-.595 8.512-1.579 14.675-1.683 10.725-5.325 33.725-5.812 39.317ZM318.975 281.62c-5.338 1.68-9.496 2.41-14 2.41-9.963 0-15.4-5.726-15.4-16.267-.138-3.28 1.437-11.88 2.675-19.738 1.12-6.925 8.446-50.533 8.446-50.533h19.366l-2.258 11.212h9.942l-2.646 17.788h-9.975c-2.25 14.091-5.463 31.62-5.496 33.95 0 3.829 2.042 5.483 6.671 5.483 2.22 0 3.937-.217 5.254-.692l-2.579 16.388M378.367 281.03c-6.65 2.033-13.08 3.012-19.88 3-21.683-.022-32.987-11.347-32.987-33.034 0-25.321 14.38-43.95 33.9-43.95 15.97 0 26.17 10.429 26.17 26.8 0 5.433-.7 10.733-2.382 18.212h-38.575c-1.305 10.742 5.57 15.221 16.837 15.221 6.93 0 13.188-1.433 20.137-4.675l-3.22 18.425Zm-10.892-43.913c.117-1.538 2.058-13.217-9.013-13.217-6.166 0-10.579 4.717-12.375 13.217h21.388ZM244.054 232.113c0 9.366 4.542 15.816 14.842 20.675 7.891 3.708 9.112 4.812 9.112 8.17 0 4.617-3.483 6.7-11.187 6.7-5.817 0-11.225-.908-17.467-2.92 0 0-2.554 16.32-2.67 17.1 4.42.966 8.374 1.85 20.274 2.191 20.567 0 30.059-7.829 30.059-24.746 0-10.179-3.971-16.15-13.738-20.637-8.167-3.758-9.112-4.583-9.112-8.046 0-4 3.245-6.058 9.541-6.058 3.821 0 9.046.42 14.004 1.125l2.771-17.18c-5.041-.8-12.691-1.441-17.146-1.441-21.804 0-29.345 11.379-29.283 25.067M642.508 282.742h-18.437l.917-6.892c-5.346 5.717-10.825 8.18-17.967 8.18-14.167 0-23.53-12.213-23.53-30.726 0-24.629 14.522-45.392 31.709-45.392 7.558 0 13.28 3.088 18.604 10.096l4.325-26.308h19.221l-14.842 91.042Zm-28.745-17.109c9.075 0 15.45-10.283 15.45-24.954 0-9.404-3.63-14.508-10.325-14.508-8.838 0-15.117 10.317-15.117 24.875 0 9.687 3.358 14.587 9.992 14.587ZM556.92 208.704c-2.44 22.917-6.774 46.13-10.162 69.063l-.891 4.975h19.491c6.971-45.275 8.659-54.117 19.588-53.009 1.742-9.266 4.983-17.383 7.4-21.479-8.163-1.7-12.721 2.913-18.688 11.675.471-3.787 1.334-7.466 1.163-11.225h-17.9M396.5 208.704c-2.446 22.917-6.78 46.13-10.167 69.063l-.887 4.975h19.5c6.962-45.275 8.646-54.117 19.57-53.009 1.75-9.266 4.992-17.383 7.4-21.479-8.154-1.7-12.716 2.913-18.678 11.675.47-3.787 1.325-7.466 1.162-11.225h-17.9M651.067 276.946c0-3.213 2.596-5.8 5.796-5.8a5.79 5.79 0 0 1 5.795 5.8 5.797 5.797 0 0 1-5.795 5.796 5.8 5.8 0 0 1-5.796-5.796Zm5.796 4.404a4.403 4.403 0 0 0 4.404-4.404 4.404 4.404 0 0 0-4.404-4.408 4.41 4.41 0 0 0-4.409 4.408 4.41 4.41 0 0 0 4.409 4.404Zm-.784-1.87h-1.187v-5.084h2.154c.446 0 .908.008 1.296.254.416.283.654.767.654 1.275 0 .575-.338 1.113-.888 1.317l.942 2.237h-1.32l-.78-2.008h-.87v2.008Zm0-2.88h.654c.246 0 .513.017.73-.1.195-.125.295-.362.295-.587a.677.677 0 0 0-.287-.525c-.204-.117-.542-.084-.763-.084h-.629v1.296Z"></path></g></symbol>
<symbol fill="none" viewBox="0 0 24 24" id="credit-card"><path stroke-linecap="round" stroke-linejoin="round" d="M2.25 8.25h19.5M2.25 9h19.5m-16.5 5.25h6m-6 2.25h3m-3.75 3h15a2.25 2.25 0 0 0 2.25-2.25V6.75A2.25 2.25 0 0 0 19.5 4.5h-15a2.25 2.25 0 0 0-2.25 2.25v10.5A2.25 2.25 0 0 0 4.5 19.5Z"></path></symbol>
<symbol fill="none" viewBox="0 0 24 24" id="check"><path stroke-linecap="round" stroke-linejoin="round" d="m4.5 12.75 6 6 9-13.5"></path></symbol>
<symbol fill="none" viewBox="0 0 24 24" id="arrow-left"><path stroke-linecap="round" stroke-linejoin="round" d="M10.5 19.5 3 12m0 0 7.5-7.5M3 12h18"></path></symbol>
</defs>
</svg>