<svg xmlns="http://www.w3.org/2000/svg" xml:space="preserve" viewBox="0 0 267.507 267.507"><path d="M90.758 43.427C86.452 21.011 68.569 2.763 45.283.88-9.707-3.567-8.528 82.066 29.298 103.912c-2.018 46.918-2 96.278 1.689 143.06-.342 3.096.723 6.576 2.134 9.042 2.483 4.335 6.907 7.648 11.946 8.169 11.079 1.145 20.112-11.237 16.485-21.499 2.491-44.722 2.194-91.002.924-135.812a2.55 2.55 0 0 0 1.79-.537C83.517 91.369 95.51 68.164 90.758 43.427zm-29.775 59.236c-.76-.024-1.558.468-1.652 1.471-4.171 44.676-5.45 92.446-1.925 137.331-.529.501-.823 1.239-.526 2.202 2.24 7.276-3.05 16.691-11.484 15.783-3.779-.407-6.861-3.042-8.708-6.257-1.523-2.653-1.59-5.206-1.766-7.941 2.378-46.98 1.039-96.385-2.261-143.219-.097-1.371-1.419-1.844-2.359-1.427C16.235 88.486 7.375 73.338 6.998 54.312 6.465 27.359 21.667-1.075 52.762 7.345c48.095 13.023 38.204 70.736 8.221 95.318z" style="fill:#1d1d1b"/><path d="M53.279 85.624c-15.618 3.086-29.434-6.26-33.162-21.61-3.582-14.747 2.168-30.956 11.582-42.279.611-.735-.354-1.75-1.066-1.066-12.597 12.113-18.766 31.928-12.455 48.748 5.381 14.344 20.891 24.027 35.982 19.4 2.054-.63 1.198-3.603-.881-3.193zM184.872 11.566c-.135-.686-.585-1.04-1.103-1.139-.684-4.331-3.206-8.447-7.688-9.272-3.685-.678-7.271 2.096-7.455 5.423-.03.098-.119.159-.13.265-1.573 16.025.473 33.426 2.278 49.64-.383.284-.694.673-.721 1.257-.137 2.925-.379 6.245-3.681 7.353-2.77.929-5.863-.991-7.272-3.349 1.118-11.563.821-23.391 1.06-34.963.165-7.958.798-15.124-2.748-21.759a1.886 1.886 0 0 0-.118-.825c-1.898-5.003-8.867-5.124-12.74-2.502-2.079 1.407-3.227 3.349-3.753 5.487a1.68 1.68 0 0 0-.242.739c-.014.203-.01.418-.022.621a13.468 13.468 0 0 0-.082 2.276c-.785 15.368.049 31.94 1.649 47.366-.073 1.654-.461 3.207-1.621 4.562-1.39 1.623-3.63 2.613-5.707 1.789-3.749-1.486-4.548-7.055-2.294-9.999.748-.977-.396-1.94-1.377-1.756.747-13.335.033-27.363-1.253-40.58 1.558-4.914-4.703-10.521-9.533-10.318-5.398.226-8.456 4.709-8.751 9.47-.563.364-.981.953-.986 1.832-.181 29.719-8.201 69.66 21.094 88.307 1.581 1.006 3.487-1.377 2.031-2.631-25.037-21.555-18.295-55.916-18.465-85.675-.004-.695-.271-1.211-.655-1.584.88-2.418 2.586-4.666 4.869-5.328 1.895-.55 3.854.294 5.091 1.782 1.331 1.6.989 3.063.947 4.963-.017.732.465 1.314 1.076 1.612-.907 14.851-1.107 30.641.804 45.091.058.441.245.77.481 1.029.451 3.434 2.624 6.683 6.141 7.761 6.33 1.938 14.88-5.759 11.412-12.107 1.7-15.191 1.543-32.108-1.095-46.823.415-1.478 1.066-2.864 2.216-3.867 2.45-2.134 5.148-1.371 7.367.461.134.11.289.183.444.254 3.17 9.081 1.406 20.447 1.195 29.567-.228 9.91-1.002 20.074-.112 29.946.146 1.613 2.699 2.322 3.159.655 2.266 2.427 5.836 3.534 9.237 2.379 3.472-1.18 6.492-5.186 6.333-8.976.203-17.193.788-36.017-2.45-52.926a3.5 3.5 0 0 1 1.485-1.523c1.292-.685 2.702-.232 3.8.629 2.891 2.269 2.229 5.945 2.579 9.149.119 1.088 1.005 1.844 1.93 2.016-.201 28.86 9.686 61.954-17.635 82.053-1.285.945-.951 2.64.041 3.308-1.914 28.508-1.934 57.121-2.286 85.682-.168 13.706-.302 27.414-.419 41.121-.037 4.398-.969 9.927-.776 15.04-.568 10.346-2.365 21.684-13.547 17.179-5.116-2.061-7.743-6.513-9.333-11.75 1.681-48.273.271-98.685-2.781-146.894-.103-1.629-2.446-1.637-2.538 0-2.278 40.33-2.377 82.895.354 123.86-.667-.289-1.592.227-1.415 1.174 2.44 13.002-.361 37.442 18.474 39.31 8.938.886 13.171-5.596 15.009-13.549.289-.087.567-.227.807-.435l.704-.609c.546-.473.699-1.538.276-2.139l-.418-.594c-.157-.224-.385-.335-.604-.453.705-5.47.533-11.106.123-15.301.027-.24.075-.528.085-.726.363-6.805.114-13.738.179-20.561.117-12.336.25-24.673.393-37.009.284-24.58.922-49.163.151-73.738 28.8-17.951 24.183-62.073 18.532-90.748zM263.868 243.082c.098-.232.159-.5.166-.811.975-49.679-2.75-99.652-2.692-149.397.029-24.819 9.57-67.784-10.335-88.052-.083-.744-.522-1.411-1.42-1.563-.117-.019-.223-.02-.339-.038-.568-.5-1.062-1.057-1.673-1.523-1.052-.802-2.224.231-2.306 1.322-21.858 1.342-21.137 45.031-23.858 59.928-4.578 25.06-19.47 57.174 14.482 63.055-4.665 40.847-6.769 84.072-5.998 125.115.004.226.067.404.12.59-1.195 9.287 10.788 13.813 18.718 12.731 8.85-1.206 20.549-11.813 15.135-21.357zm-13.702 16.301c-6.021 1.564-14.964-.278-17.159-6.708.48-.321.856-.826.935-1.555 4.478-41.385 6.273-85.277 5.158-126.891-.04-1.5-1.613-1.805-2.475-1.053-25.128-10.145-13.359-42.405-9.66-62.82 2.036-11.237 3.72-52.846 21.442-53.103 11.452 14.527 8.562 34.816 8.318 52.412a3048.287 3048.287 0 0 0-.241 62.268c.262 39.573-.563 80.203 3.595 119.59-.359.314-.6.77-.57 1.411.36 7.532-.694 14.202-9.343 16.449zM55.819 251.834c-4.016.476-7.995 1.317-11.974 2.034-.931.168-.532 1.571.39 1.415 3.921-.663 7.889-1.205 11.766-2.106.734-.17.594-1.436-.182-1.343zM56.481 243.411c-3.809.398-7.57 1.074-11.343 1.725-.653.113-.509 1.252.158 1.169 3.797-.475 7.595-.92 11.353-1.648.693-.134.546-1.321-.168-1.246zM59.747 233.439c-4.612.361-9.122.82-13.761.646-.934-.035-.926 1.397 0 1.447 4.628.249 9.394.25 13.951-.691.779-.161.617-1.465-.19-1.402zM57.126 222.15c-3.955.439-7.808.847-11.795.625-1.152-.064-1.136 1.702 0 1.785 4.006.293 8.106.245 12.024-.716.92-.225.755-1.803-.229-1.694zM56.929 211.813c-4.108.753-8.078 1.175-12.253 1.206-1.061.008-1.029 1.539 0 1.626 4.192.357 8.645-.094 12.653-1.379.934-.3.547-1.627-.4-1.453zM58.222 197.989c-4.478.712-8.77 1.217-13.286.499-1.244-.198-1.79 1.695-.527 1.912 4.748.816 9.694.884 14.235-.882.957-.371.589-1.689-.422-1.529zM56.242 184.178c-3.294.646-6.73.693-10.021.005-1.329-.278-1.901 1.75-.564 2.046 3.762.834 7.356.746 11.018-.483.996-.335.593-1.77-.433-1.568zM59.517 174.34c-3.636.671-7.186.589-10.7-.612-1.118-.382-1.577 1.362-.484 1.759 3.775 1.371 7.772 1.667 11.627.459 1.034-.324.602-1.799-.443-1.606zM59.091 157.222c-4.49.553-8.992.652-13.447-.217-1.495-.292-2.137 1.997-.632 2.295 4.823.954 9.565 1.036 14.32-.286.955-.266.81-1.922-.241-1.792zM56.483 142.967c-3.52.317-6.952.709-10.493.46-1.192-.084-1.168 1.736 0 1.844 3.582.33 7.24.326 10.709-.707.841-.252.731-1.683-.216-1.597zM59.108 134.346c-4.621.355-9.14.57-13.774.496-1.295-.021-1.22 1.818 0 1.963 4.626.552 9.471.393 14.031-.57 1.046-.221.831-1.973-.257-1.889zM59.747 122.408c-4.493-.567-9.234-.15-13.761-.129-1.455.008-1.457 2.254 0 2.261 4.526.02 9.267.438 13.761-.13 1.285-.161 1.288-1.84 0-2.002zM60.403 111.476c-4.368-.251-8.735-.076-13.106.011-1.008.02-1.01 1.546 0 1.566 4.372.087 8.738.261 13.106.009 1.019-.058 1.021-1.526 0-1.586zM59.951 103.465c-4.763-1.387-10.848-.077-15.638.805-1.413.26-.802 2.369.59 2.142a73.307 73.307 0 0 1 8.401-.889c2.212-.104 4.48.052 6.647-.432.835-.187.767-1.402 0-1.626zM65.909 96.242c-5.097-.927-10.168-1.035-15.336-.72-1.301.08-1.322 2.088 0 2.042 5.039-.173 10.055.176 15.072.626 1.104.099 1.364-1.748.264-1.948zM74.02 85.54c-5.261.754-10.242 1.518-15.573 1.036-.926-.083-.891 1.315 0 1.428 5.233.66 10.919.652 15.911-1.241.775-.293.466-1.338-.338-1.223zM81.146 73.455c-6.467 1.649-12.725 2.87-19.434 2.644-1.024-.034-1.014 1.531 0 1.586 6.682.367 13.596-.205 19.855-2.701.927-.368.594-1.787-.421-1.529zM83.737 60.877c-5.099 1.231-10.035 1.69-15.222.708-1.267-.24-1.819 1.682-.537 1.95 5.43 1.138 11.021 1.129 16.291-.726 1.206-.424.734-2.237-.532-1.932zM86.638 50.296c-6.341-.177-12.668.429-19.023.184-1.011-.039-1.001 1.509 0 1.567 6.323.362 12.947.726 19.195-.485.732-.143.531-1.247-.172-1.266zM84.649 41.223c-4.97-.545-10.08-.178-15.072-.119-1.352.016-1.354 2.086 0 2.102 4.993.058 10.103.425 15.072-.119a.933.933 0 0 0 0-1.864zM82.023 32.766c-3.44-.343-6.795.038-10.253-.582-1.168-.209-1.679 1.562-.496 1.797 3.416.68 7.562 1.392 10.97.421.951-.271.681-1.546-.221-1.636zM81.598 26.307c-5.425-2.138-12.139-2.296-17.897-2.689-1.563-.107-1.533 2.282 0 2.419 5.853.522 11.777 2.113 17.639 2.179 1.165.014 1.226-1.527.258-1.909zM73.116 20.23c-5.155-1.808-10.549-2.488-15.989-2.654-1.247-.038-1.223 1.837 0 1.924 5.256.371 10.341 1.457 15.457 2.661 1.265.298 1.742-1.507.532-1.931z" style="fill:#1d1d1b"/><path d="M159.805 251.781c-3.568 1.477-7.062 2.531-10.939 2.816-.701.052-.701 1.037 0 1.09 3.988.304 8.058-.47 11.504-2.566.678-.411.23-1.67-.565-1.34zM163.767 242.052c-5.422.969-10.675 1.954-16.211 1.878-.897-.013-.889 1.349 0 1.388 5.541.242 11.318-.064 16.57-1.965.82-.297.497-1.453-.359-1.301zM162.634 232.899c-3.717.494-7.391.859-11.145.669-.734-.037-.714 1.065 0 1.13 3.799.349 7.585.302 11.314-.552.681-.157.549-1.343-.169-1.247zM160.346 222.651c-.329-1.003-1.834-.599-1.587.438.298 1.25-1.3 2.096-2.265 2.319-.996.23-2.067.053-3.073.027-1.536-.042-2.925.112-4.195 1.033-.801.582-.058 1.923.791 1.353 2.434-1.635 5.503.163 8.127-1.034 1.66-.757 2.808-2.292 2.202-4.136zM161.066 208.345c-4.057.631-7.815 1.227-11.92.583-1.396-.219-2.003 1.915-.591 2.141 4.385.706 9.078.736 13.214-1.057 1.026-.445.225-1.811-.703-1.667zM161.322 195.351c-3.177.277-6.402.296-9.546-.269-1.309-.236-1.872 1.767-.553 2.008 3.506.641 6.843.713 10.317-.122.884-.213.72-1.699-.218-1.617zM160.489 182.41c-3.197.568-6.277.67-9.432-.189-1.111-.302-1.575 1.394-.475 1.721 3.421 1.016 6.939 1.208 10.334.017.983-.345.588-1.729-.427-1.549zM162.009 170.133c-4.134-.281-8.327.248-12.484.054-1.305-.061-1.294 1.946 0 2.023 4.124.247 8.665.593 12.708-.421.96-.242.692-1.594-.224-1.656zM165.248 159.859c-4.748-.297-9.469-.451-14.182-1.169-1.281-.195-1.846 1.753-.543 1.97 4.867.81 9.794 1.384 14.725.984 1.141-.093 1.155-1.713 0-1.785zM162.824 148.261c-2.775-.742-5.639-1.032-8.479-1.423-1.166-.16-1.688 1.611-.496 1.797 2.915.454 5.821 1.016 8.776 1.106.851.027 1.018-1.261.199-1.48zM161.317 139.496c-3.503-.295-6.973-.217-10.485-.149-1.416.027-1.418 2.173 0 2.201 3.512.068 6.98.145 10.485-.149 1.223-.103 1.224-1.8 0-1.903zM163.956 128.473c-4.433.002-8.601-.066-12.864-1.442-1.358-.438-1.912 1.659-.586 2.122 4.369 1.527 9.153 2.327 13.706 1.209 1.058-.26.824-1.889-.256-1.889zM163.952 112.141c-3.103.157-5.839.65-8.92-.187-1.225-.333-1.719 1.506-.522 1.893 3.143 1.019 6.861 1.472 9.862-.154.714-.386.407-1.594-.42-1.552zM164.85 102.146c-3.972-1.302-8.392-1.489-12.461-2.572-1.287-.343-1.816 1.6-.548 1.988 3.926 1.204 8.599 2.805 12.756 2.453 1.055-.089 1.308-1.523.253-1.869zM175.758 88.9c-7.26.406-14.748 1.865-21.851 3.373-.486.103-.386.918.119.876 7.23-.602 14.83-1.359 21.894-3.06.653-.158.526-1.227-.162-1.189zM180.981 78.146c-5.027.083-10.085.819-15.089 1.294-.699.066-.724 1.144 0 1.11 5.01-.232 10.11-.217 15.089-.838.968-.121 1.038-1.584 0-1.566zM183.607 65.623c-3.519.279-6.951.759-10.493.569-1.088-.058-1.043 1.552 0 1.666 3.58.39 7.248.475 10.715-.599.857-.265.753-1.713-.222-1.636zM182.969 54.57c-2.577.075-5.065.147-7.614-.337-1.176-.223-1.693 1.535-.501 1.817 2.756.652 5.569.907 8.347.234.952-.23.755-1.742-.232-1.714zM182.988 44.2c-2.436.11-4.782.399-7.222.14-.967-.103-1.205 1.567-.232 1.714 2.576.389 5.173.564 7.665-.296.803-.278.729-1.601-.211-1.558zM181.831 32.926c-2.757-.56-5.586-.121-8.252.682-.787.237-.459 1.387.338 1.224 2.602-.534 5.081-.43 7.709-.387.853.015 1.074-1.342.205-1.519zM181.626 20.811c-2.605-.109-5.276.446-7.853.791-1.174.157-1.256 1.976 0 1.904 2.684-.155 5.491-.125 8.117-.747 1.12-.266.826-1.902-.264-1.948zM179.424 11.956c-1.992-.944-4.144-1.011-6.312-.778-1.041.113-1.093 1.71 0 1.666 1.965-.079 3.751.329 5.678.616.834.125 1.558-1.067.634-1.504zM180.007 7.493c-1.485-.587-3.037-.934-4.584-1.324-1.476-.372-2.078 1.829-.627 2.276 1.523.47 3.03.979 4.605 1.247 1.457.25 1.972-1.659.606-2.199zM260.923 247.803c-4.813.098-9.639.783-14.426 1.264-.923.093-.954 1.53 0 1.467 4.869-.317 9.807-.45 14.64-1.154.903-.13.675-1.595-.214-1.577zM262.786 236.271c-4.519 1.412-8.884 2.356-13.649 2.103-1.113-.059-1.099 1.647 0 1.725 4.88.348 9.834-.215 14.283-2.324.845-.4.25-1.78-.634-1.504zM257.643 218.32c-3.517.092-7.005.667-10.49 1.118-1.129.146-1.162 1.935 0 1.804 3.57-.401 7.174-.678 10.69-1.442.831-.181.646-1.503-.2-1.48zM258.315 202.08c-3.385.406-6.701 1.215-10.029 1.931-.919.198-.52 1.555.384 1.396 3.289-.58 6.608-1.06 9.832-1.944.738-.202.624-1.48-.187-1.383zM257.656 186.216c-4.124.135-8.094.371-12.202-.231-1.155-.169-1.667 1.586-.489 1.778 4.243.692 8.681 1.037 12.918.128.939-.202.732-1.707-.227-1.675zM257.673 168.095c-4.629-.137-9.158.079-13.772-.533-1.042-.138-1.298 1.684-.25 1.85 4.672.737 9.569 1.258 14.251.377.984-.185.711-1.666-.229-1.694zM254.153 151.856c-1.881 1.918-4.292 2.942-6.842 1.681-1.242-.614-2.217 1.067-1.082 1.85 3.093 2.132 8.113 1.002 9.299-2.729.253-.793-.811-1.376-1.375-.802zM256.333 135.336c-3.28-.299-6.331-.226-9.529-1.221-1.409-.438-1.942 1.679-.601 2.18 3.213 1.199 7.028 2.121 10.443 1.358 1.379-.308.937-2.204-.313-2.317zM257.911 117.239c-3.798-.52-7.581-.676-11.408-.852-1.453-.066-1.42 2.124 0 2.241 3.72.308 7.403.648 11.137.617 1.105-.009 1.447-1.845.271-2.006zM255.441 98.925c-2.082.735-4.023.851-6.103.054-1.018-.39-1.757 1.333-.749 1.776 2.552 1.122 5.087 1.239 7.608-.035.982-.497.299-2.168-.756-1.795zM255.685 88.661c-3.701-.225-7.426.031-11.138-.178-.987-.055-.941 1.398 0 1.507 3.642.427 7.475.93 11.138.555 1.192-.122 1.229-1.809 0-1.884zM255.414 73.913c-3.597 1.176-6.892 1.749-10.599.663-1.239-.363-1.713 1.487-.527 1.913 3.867 1.385 8.326 1.503 11.989-.529 1.095-.607.36-2.446-.863-2.047zM259.767 53.948c-2.092-.37-4.155-.244-6.269-.175-1.016.034-2.031.07-3.048.115-.305.014-2.16.275-3.176.372.16-.133.242-.342.08-.555l-.159-.21c-.132-.176-.335-.3-.566-.23-.557.169-.631.259-.848.802-.072.178.011.428.147.553 1.316 1.221 3.874.756 5.539.801 2.757.075 5.579.307 8.3-.212.62-.117.629-1.15 0-1.261zM259.032 40.775c-5.167.592-9.883 1.526-15.135 1.002-1.023-.102-1.275 1.67-.245 1.811 5.003.684 10.834 1.011 15.654-.788.997-.372.97-2.167-.274-2.025zM256.578 30.126c-4.114-.66-8.542-.166-12.696-.102-1.275.02-1.278 1.964 0 1.983 4.155.064 8.584.557 12.696-.102.88-.142.881-1.638 0-1.779zM254.656 19.116c-1.717-.534-3.644-.284-5.43-.269l-5.994.053c-1.508.013-1.505 2.298 0 2.34l5.994.168c1.799.05 3.691.335 5.43-.17 1.061-.307 1.033-1.801 0-2.122zM254.695 10.825c-4.113-1.518-8.449-1.735-12.776-1.173-1.339.174-1.414 2.27 0 2.161 4.155-.32 8.122.29 12.138 1.326 1.518.391 2.068-1.786.638-2.314z" style="fill:#1d1d1b"/></svg>