<svg xmlns="http://www.w3.org/2000/svg" width="314.34" height="632.858" viewBox="0 0 83.169 167.444"><g transform="translate(-67.53 -18.176)"><g transform="matrix(.46241 .26133 .0033 .58893 116.005 -13.28)"><path d="M26.573 159.04a31.239 53.784 0 0 1-14.718-71.698A31.239 53.784 0 0 1 53.492 61.97a31.239 53.784 0 0 1 14.757 71.674 31.239 53.784 0 0 1-41.623 25.44" style="fill:#2bbe69;fill-opacity:1;stroke:#000;stroke-width:5.87928;stroke-linecap:round;stroke-linejoin:miter;stroke-dasharray:none;stroke-opacity:1"/><rect width=".744" height="76.196" x="39.429" y="84.408" ry=".328" style="fill:green;stroke:#000;stroke-width:4.92073;stroke-linecap:round;stroke-linejoin:miter;stroke-dasharray:none;stroke-opacity:1"/></g><g transform="matrix(-.28837 .3783 .24196 .4872 91.92 -6.934)"><path d="M26.573 159.04a31.239 53.784 0 0 1-14.718-71.698A31.239 53.784 0 0 1 53.492 61.97a31.239 53.784 0 0 1 14.757 71.674 31.239 53.784 0 0 1-41.623 25.44" style="fill:#2bbe69;fill-opacity:1;stroke:#000;stroke-width:5.87928;stroke-linecap:round;stroke-linejoin:miter;stroke-dasharray:none;stroke-opacity:1"/><rect width=".744" height="76.196" x="39.429" y="84.408" ry=".328" style="fill:green;stroke:#000;stroke-width:4.92073;stroke-linecap:round;stroke-linejoin:miter;stroke-dasharray:none;stroke-opacity:1"/></g><g transform="matrix(.54683 -.1773 .25709 .79293 72.99 -17.02)"><path d="M26.573 159.04a31.239 53.784 0 0 1-14.718-71.698A31.239 53.784 0 0 1 53.492 61.97a31.239 53.784 0 0 1 14.757 71.674 31.239 53.784 0 0 1-41.623 25.44" style="fill:#2bbe69;fill-opacity:1;stroke:#000;stroke-width:5.87928;stroke-linecap:round;stroke-linejoin:miter;stroke-dasharray:none;stroke-opacity:1"/><rect width=".744" height="76.196" x="39.429" y="84.408" ry=".328" style="fill:green;stroke:#000;stroke-width:4.92073;stroke-linecap:round;stroke-linejoin:miter;stroke-dasharray:none;stroke-opacity:1"/></g><ellipse cx="157.773" cy="71.377" rx="30.439" ry="53.302" style="fill:#a40;stroke:#084285;stroke-width:.0950987" transform="matrix(.89924 .43747 -.45938 .88824 0 0)"/><path d="M194.633 103.29a34.053 59.502 0 0 1-25.68 40.21 34.053 59.502 0 0 1-32.61-19.588 34.053 59.502 0 0 1-6.102-59.3" style="fill:none;stroke:#000;stroke-width:4.79277;stroke-linecap:round;stroke-linejoin:miter;stroke-dasharray:none;stroke-opacity:1" transform="matrix(.94187 .33598 -.471 .88214 0 0)"/><ellipse cx="159.906" cy="64.507" rx="27.842" ry="49.115" style="fill:#ff7f2a;stroke:#084285;stroke-width:.0873062" transform="matrix(.88697 .46183 -.43493 .90046 0 0)"/><path d="M-134.8-10.758a36.345 69.222 0 0 1-27.025 23.715 36.345 69.222 0 0 1-27.27-22.681" style="fill:none;stroke:#000;stroke-width:5.0858;stroke-linecap:round;stroke-dasharray:none;stroke-opacity:1" transform="matrix(-.8073 -.59014 .49128 -.871 0 0)"/><path d="M125.255-91.246a43.144 24.717 0 0 1 18.182-6.636" style="fill:none;stroke:#000;stroke-width:4.83428;stroke-linecap:round;stroke-linejoin:miter;stroke-dasharray:none;stroke-opacity:1" transform="matrix(.99391 .11017 .02027 -.9998 0 0)"/><path d="M104.117-138.295a51.463 23.735 0 0 1 21.688-6.373" style="fill:none;stroke:#000;stroke-width:5.17394;stroke-linecap:round;stroke-linejoin:miter;stroke-dasharray:none;stroke-opacity:1" transform="matrix(.9936 .1129 .04956 -.99877 0 0)"/><path d="M81.018-151.513A43.144 24.717 0 0 1 99.2-158.15" style="fill:none;stroke:#000;stroke-width:4.83428;stroke-linecap:round;stroke-linejoin:miter;stroke-dasharray:none;stroke-opacity:1" transform="matrix(.99391 .11017 .02027 -.9998 0 0)"/><path d="M31.217 221.073a12.635 12.038 0 0 1-5.963-16.027 12.635 12.038 0 0 1 16.809-5.718 12.635 12.038 0 0 1 6.04 16.001 12.635 12.038 0 0 1-16.781 5.791" style="fill:#fff;stroke:#000;stroke-width:2.83017;stroke-linecap:round;stroke-linejoin:miter;stroke-dasharray:none;stroke-opacity:1" transform="translate(66.542 -87.154)"/><path d="M56.379 221.028a12.635 12.038 0 0 1-5.953-16.047 12.635 12.038 0 0 1 16.84-5.679 12.635 12.038 0 0 1 5.969 16.042 12.635 12.038 0 0 1-16.835 5.694" style="fill:#fff;stroke:#000;stroke-width:2.83017;stroke-linecap:round;stroke-linejoin:miter;stroke-dasharray:none;stroke-opacity:1" transform="translate(66.542 -87.154)"/><path d="M40.235 213.208a3.348 3.385 0 0 1-1.578-4.512 3.348 3.385 0 0 1 4.463-1.597 3.348 3.385 0 0 1 1.582 4.51 3.348 3.385 0 0 1-4.462 1.602M56.972 213.105a3.348 3.385 0 0 1-1.577-4.513 3.348 3.385 0 0 1 4.463-1.597 3.348 3.385 0 0 1 1.582 4.511 3.348 3.385 0 0 1-4.462 1.601" style="fill:#000;stroke:#000;stroke-width:2.83017;stroke-linecap:round;stroke-linejoin:miter;stroke-dasharray:none;stroke-opacity:1" transform="translate(66.542 -87.154)"/></g></svg>