<svg xmlns="http://www.w3.org/2000/svg" viewBox="0 0 1201 797" width="1201" height="797" fill="none"><path fill="#8400FF" d="M295.5 188c0-5.667.667-9.5 2-11.5 1.667-2.333 4.5-3.5 8.5-3.5 4.333 0 11.667 4.5 22 13.5s15.833 17 16.5 24c1.333 12 7.667 33.333 19 64 11.333 30.333 24.333 61.167 39 92.5 18.667-22 42.167-51.167 70.5-87.5 28.333-36.667 49.333-62.667 63-78 13.667-15.333 23.5-23 29.5-23s12.333 3.333 19 10 10 13 10 19-.667 12.833-2 20.5-3.667 17.833-7 30.5c-3 12.333-5.833 23.167-8.5 32.5-2.333 9-6.333 23.167-12 42.5s-10 34.833-13 46.5c-3 11.333-6.5 25.333-10.5 42-4 16.333-7.333 29.833-10 40.5A814.286 814.286 0 0 1 524 493c-5 19.333-9.833 29-14.5 29-4.333 0-8.667-4-13-12s-6.5-18.667-6.5-32c0-13.667 5.667-44.667 17-93 11.667-48.333 24.167-90.667 37.5-127-61.333 76.667-99.167 122.5-113.5 137.5-14 15-25.667 22.5-35 22.5-9 0-17.5-5.167-25.5-15.5-12-17.333-28.167-58.333-48.5-123-5.667 35-12 65-19 90-6.667 24.667-11.167 41.167-13.5 49.5-2 8-3.833 14.667-5.5 20-1.333 5.333-3 11.667-5 19-2 7-3.833 12.833-5.5 17.5A2065.196 2065.196 0 0 1 269 491c-1.667 5.333-3.167 9.667-4.5 13-1 3.333-2.167 6.5-3.5 9.5-2.667 5.667-4.667 8.5-6 8.5-4 0-9-4.333-15-13s-9-17-9-25 10.667-54 32-138c21.667-84 32.5-136.667 32.5-158Z"/><path fill="#1F2937" d="M634.162 381.072c-2.435 0-4.691-.358-6.767-1.074-2.006-.788-3.76-1.898-5.264-3.33-3.151-3.008-4.727-7.054-4.727-12.139 0-4.869 1.862-8.987 5.586-12.353 3.581-3.366 7.878-5.049 12.891-5.049s9.023 1.504 12.031 4.512c3.008 3.007 4.512 7.09 4.512 12.246 0 4.87-1.791 8.987-5.371 12.353-3.509 3.223-7.806 4.834-12.891 4.834ZM627.609 532c-11.028 0-16.543-2.507-16.543-7.52 0-2.578.573-4.583 1.719-6.015 1.719.573 3.294.859 4.727.859 6.66 0 9.918-4.225 9.775-12.676v-71.972c0-5.013-.716-8.487-2.148-10.42-1.361-2.005-3.832-3.008-7.412-3.008-2.65 0-5.049.322-7.198.967-1.289.143-2.22-.86-2.793-3.008-.501-1.934-.215-3.617.86-5.049 1.074-1.504 2.721-3.043 4.941-4.619a42.786 42.786 0 0 1 7.52-4.297c5.872-2.793 10.778-4.189 14.716-4.189 3.939 0 6.84.573 8.702 1.718 1.933 1.146 3.401 2.686 4.404 4.62 1.575 3.151 2.363 8.235 2.363 15.254v85.83c.215 5.657 2.256 9.095 6.123 10.312 1.074.358 2.399.68 3.975.967 1.575.286 2.972.644 4.189 1.074 1.289.358 2.292.788 3.008 1.289 1.218.931 1.826 2.435 1.826 4.512 0 2.578-.537 4.547-1.611 5.908-1.504-.358-3.796-.537-6.875-.537h-34.268Zm145.772-13.428c-11.1 10.384-23.311 15.576-36.631 15.576-14.681 0-26.641-5.013-35.879-15.039-10.026-11.028-15.039-26.246-15.039-45.654 0-21.842 6.947-39.603 20.84-53.281 12.962-12.748 28.288-19.121 45.976-19.121 7.09 0 13.894 1.181 20.411 3.545v-31.045c0-5.013-.502-8.2-1.504-9.561-1.647-2.291-4.333-3.437-8.057-3.437-1.575 0-3.151.179-4.727.537-1.503.286-2.578.286-3.222 0a4.336 4.336 0 0 1-1.397-1.397c-1.432-2.363.358-5.371 5.371-9.023 7.878-5.801 15.648-8.701 23.311-8.701 8.092 0 12.712 4.404 13.857 13.213a77.86 77.86 0 0 1 .43 8.378v124.717c0 11.029.43 17.904 1.289 20.625.86 2.722 1.862 4.512 3.008 5.371 1.217.788 2.721 1.182 4.512 1.182 1.79 0 3.258-.286 4.404-.859l3.223-1.397c.931-.215 1.754.215 2.47 1.289 1.504 2.22 1.719 4.225.645 6.016-1.074 1.79-2.686 3.509-4.834 5.156-2.149 1.647-4.548 3.08-7.197 4.297-11.602 5.228-20.267 5.335-25.996.322-2.793-2.435-4.548-6.338-5.264-11.709Zm-.322-92.168c-7.019-5.371-15.183-8.056-24.493-8.056-11.171 0-20.231 4.117-27.177 12.353-7.448 8.809-11.172 20.804-11.172 35.987 0 24.134 6.875 39.029 20.625 44.687 4.297 1.719 8.45 2.578 12.461 2.578 4.082 0 7.483-.322 10.205-.967 2.721-.644 5.263-1.504 7.627-2.578 4.726-2.148 8.701-4.762 11.924-7.842v-76.162Zm60.263 46.299c0-8.737.86-16.579 2.578-23.525 1.719-6.947 4.082-13.07 7.09-18.369 3.008-5.3 6.553-9.812 10.635-13.536 4.082-3.795 8.451-6.875 13.105-9.238 9.096-4.655 19.086-6.982 29.971-6.982 13.965 0 25.817 5.084 35.557 15.254 10.814 11.172 16.221 25.924 16.221 44.257 0 24.063-6.553 42.79-19.659 56.182-11.386 11.53-25.029 17.295-40.927 17.295-16.615 0-29.935-5.837-39.961-17.51-9.74-11.243-14.61-25.853-14.61-43.828Zm60.908 43.828c4.799 0 9.096-1.11 12.891-3.33 3.796-2.291 7.018-5.407 9.668-9.346 5.3-8.164 7.949-18.763 7.949-31.796 0-14.323-2.793-26.498-8.379-36.524-6.302-11.53-15.361-17.295-27.177-17.295-9.525 0-17.152 3.653-22.881 10.957-6.087 7.735-9.131 18.548-9.131 32.442 0 17.402 3.831 31.152 11.494 41.25 6.875 9.095 15.397 13.642 25.566 13.642Zm153.61-76.269.11-3.867c0-1.361-.32-3.653-.97-6.875-.64-3.295-2.72-5.98-6.23-8.057-3.43-2.077-7.84-3.115-13.21-3.115-5.3 0-10.03 1.36-14.18 4.082-4.08 2.649-7.41 6.23-9.99 10.742-4.869 8.594-7.304 20.088-7.304 34.482 0 13.607 3.295 24.672 9.884 33.194 6.73 8.737 15.61 13.105 26.64 13.105 10.03 0 19.62-2.757 28.79-8.271 2.22-1.361 3.94-2.543 5.16-3.545.71 0 1.53.573 2.47 1.718 1.79 2.077 2.68 3.76 2.68 5.049 0 1.218-.5 2.65-1.5 4.297-1.01 1.576-2.47 3.294-4.41 5.156-1.86 1.791-4.11 3.617-6.76 5.479-2.65 1.862-5.63 3.545-8.92 5.049-7.52 3.437-15.22 5.156-23.1 5.156-7.87 0-15.25-1.325-22.12-3.975-6.808-2.721-12.681-6.696-17.622-11.923-10.599-11.101-15.899-26.355-15.899-45.762 0-22.057 6.732-39.782 20.196-53.174 12.245-12.103 26.385-18.154 42.435-18.154 10.52 0 19.3 2.256 26.31 6.767 7.38 4.727 11.07 10.957 11.07 18.692 0 4.225-.93 7.412-2.79 9.56-3.23 3.796-6.99 5.694-11.28 5.694-4.23 0-7.38-.502-9.46-1.504Zm118.38-1.074c0-11.029-4.58-18.334-13.75-21.915-2.93-1.145-6.12-1.718-9.56-1.718-3.36 0-6.51.286-9.45.859-2.87.573-5.41 1.468-7.63 2.686-5.01 2.721-7.52 6.624-7.52 11.709 0 4.869 2.08 9.095 6.23 12.675 4.59 3.796 13.11 8.487 25.57 14.073 12.46 5.514 22.06 11.565 28.79 18.154 6.8 6.517 10.2 14.036 10.2 22.559 0 9.596-3.94 17.688-11.81 24.277-9.24 7.663-22.02 11.494-38.35 11.494-19.98 0-33.8-4.261-41.47-12.783-2.65-3.008-3.97-6.839-3.97-11.494 0-11.244 2.76-17.797 8.27-19.659 1.36-.429 2.65-.644 3.87-.644 3.36 0 5.19 1.038 5.48 3.115 1.57 17.904 11.6 26.856 30.07 26.856 11.1 0 18.52-3.116 22.24-9.346 1.22-2.005 1.83-4.44 1.83-7.305 0-2.864-.94-5.478-2.8-7.842-1.79-2.363-4.29-4.547-7.52-6.552-3.22-2.077-7.05-4.082-11.49-6.016l-14.29-6.445c-21.91-10.026-32.87-23.347-32.87-39.961 0-10.742 4.76-19.336 14.29-25.781 9.02-6.088 20.66-9.131 34.91-9.131 19.34 0 31.37 4.189 36.09 12.568 1.22 2.149 1.83 4.512 1.83 7.09 0 2.578-.14 4.906-.43 6.982-.29 2.006-.64 3.832-1.07 5.479-.72 3.151-1.54 5.371-2.47 6.66-1.87 1.361-4.55 2.041-8.06 2.041-3.44 0-5.16-.895-5.16-2.685Z"/><path fill="#8400FF" d="M197.302 498.87c-25.345-3.346-74.717 3.162-121.528 16.019l-11.05 3.039C33.664 526.484 16.884 532.45 5 539.163c-4.638 2.62-5.043 2.969-4.998 4.309.068 1.955.807 1.806 9.349-1.894 8.839-3.828 16.71-6.313 38.238-12.072 71.955-19.249 105.378-24.876 142.474-23.984 7.269.174 18.756 2.731 18.678 4.158-.105 1.905-7.672 6.942-25.089 16.695-21.428 11.998-34.521 20.186-35.759 22.36-2.117 3.718-.197 7.098 4.328 7.625 2.586.301 3.179.253 15.193-1.256 34.492-4.326 56.456-5.618 86.096-5.062 45.138.847 73.778 3.591 127.431 12.214 19.279 3.099 20.28 3.189 23.927 2.145l.064-.018c1.17-.327 1.491-2.939.389-3.76-2.836-2.11-4.768-2.583-21.482-5.252-56.033-8.948-85.616-11.854-128.669-12.63-22.643-.409-32.755-.187-49.328 1.086-11.33.869-41.283 4.016-45.497 4.778-2.299.417 7.924-5.838 25.823-15.799 22.643-12.603 27.217-16.345 27.578-22.556.406-7.002-3.439-9.663-16.445-11.38Z"/></svg>