<svg xmlns="http://www.w3.org/2000/svg" width="598" height="797" fill="none"><path fill="#1E1E1E" d="M295.5 188c0-5.667.667-9.5 2-11.5 1.667-2.333 4.5-3.5 8.5-3.5 4.333 0 11.667 4.5 22 13.5s15.833 17 16.5 24c1.333 12 7.667 33.333 19 64 11.333 30.333 24.333 61.167 39 92.5 18.667-22 42.167-51.167 70.5-87.5 28.333-36.667 49.333-62.667 63-78 13.667-15.333 23.5-23 29.5-23s12.333 3.333 19 10 10 13 10 19-.667 12.833-2 20.5-3.667 17.833-7 30.5c-3 12.333-5.833 23.167-8.5 32.5-2.333 9-6.333 23.167-12 42.5s-10 34.833-13 46.5c-3 11.333-6.5 25.333-10.5 42-4 16.333-7.333 29.833-10 40.5A814.286 814.286 0 0 1 524 493c-5 19.333-9.833 29-14.5 29-4.333 0-8.667-4-13-12s-6.5-18.667-6.5-32c0-13.667 5.667-44.667 17-93 11.667-48.333 24.167-90.667 37.5-127-61.333 76.667-99.167 122.5-113.5 137.5-14 15-25.667 22.5-35 22.5-9 0-17.5-5.167-25.5-15.5-12-17.333-28.167-58.333-48.5-123-5.667 35-12 65-19 90-6.667 24.667-11.167 41.167-13.5 49.5-2 8-3.833 14.667-5.5 20-1.333 5.333-3 11.667-5 19-2 7-3.833 12.833-5.5 17.5A2065.196 2065.196 0 0 1 269 491c-1.667 5.333-3.167 9.667-4.5 13-1 3.333-2.167 6.5-3.5 9.5-2.667 5.667-4.667 8.5-6 8.5-4 0-9-4.333-15-13s-9-17-9-25 10.667-54 32-138c21.667-84 32.5-136.667 32.5-158Z"/><path fill="#8400FF" d="M197.302 498.87c-25.345-3.346-74.717 3.162-121.528 16.019l-11.05 3.039C33.664 526.484 16.884 532.45 5 539.163c-4.638 2.62-5.043 2.969-4.998 4.309.068 1.955.807 1.806 9.349-1.894 8.839-3.828 16.71-6.313 38.238-12.072 71.955-19.249 105.378-24.876 142.474-23.984 7.269.174 18.756 2.731 18.678 4.158-.105 1.905-7.672 6.942-25.089 16.695-21.428 11.998-34.521 20.186-35.759 22.36-2.117 3.718-.197 7.098 4.328 7.625 2.586.301 3.179.253 15.193-1.256 34.492-4.326 56.456-5.618 86.096-5.062 45.138.847 73.778 3.591 127.431 12.214 19.279 3.099 20.28 3.189 23.927 2.145l.064-.018c1.17-.327 1.491-2.939.389-3.76-2.836-2.11-4.768-2.583-21.482-5.252-56.033-8.948-85.616-11.854-128.669-12.63-22.643-.409-32.755-.187-49.328 1.086-11.33.869-41.283 4.016-45.497 4.778-2.299.417 7.924-5.838 25.823-15.799 22.643-12.603 27.217-16.345 27.578-22.556.406-7.002-3.439-9.663-16.445-11.38Z"/></svg>