<svg xmlns="http://www.w3.org/2000/svg" width="382.96" height="592.186" viewBox="0 0 101.325 156.683"><g transform="matrix(.3029 .4363 -.25295 .53185 79.318 -15.74)"><path d="M26.573 159.04a31.239 53.784 0 0 1-14.718-71.698A31.239 53.784 0 0 1 53.492 61.97a31.239 53.784 0 0 1 14.757 71.674 31.239 53.784 0 0 1-41.623 25.44" style="fill:#2bbe69;fill-opacity:1;stroke:#000;stroke-width:5.87928;stroke-linecap:round;stroke-linejoin:miter;stroke-dasharray:none;stroke-opacity:1"/><rect width=".744" height="76.196" x="39.429" y="84.408" ry=".328" style="fill:green;stroke:#000;stroke-width:4.92073;stroke-linecap:round;stroke-linejoin:miter;stroke-dasharray:none;stroke-opacity:1"/></g><g transform="matrix(-.22096 .42124 .32012 .4398 9.524 -.48)"><path d="M26.573 159.04a31.239 53.784 0 0 1-14.718-71.698A31.239 53.784 0 0 1 53.492 61.97a31.239 53.784 0 0 1 14.757 71.674 31.239 53.784 0 0 1-41.623 25.44" style="fill:#2bbe69;fill-opacity:1;stroke:#000;stroke-width:5.87928;stroke-linecap:round;stroke-linejoin:miter;stroke-dasharray:none;stroke-opacity:1"/><rect width=".744" height="76.196" x="39.429" y="84.408" ry=".328" style="fill:green;stroke:#000;stroke-width:4.92073;stroke-linecap:round;stroke-linejoin:miter;stroke-dasharray:none;stroke-opacity:1"/></g><g transform="matrix(.57455 -.01895 .02748 .83311 23.184 -44.119)"><path d="M26.573 159.04a31.239 53.784 0 0 1-14.718-71.698A31.239 53.784 0 0 1 53.492 61.97a31.239 53.784 0 0 1 14.757 71.674 31.239 53.784 0 0 1-41.623 25.44" style="fill:#2bbe69;fill-opacity:1;stroke:#000;stroke-width:5.87928;stroke-linecap:round;stroke-linejoin:miter;stroke-dasharray:none;stroke-opacity:1"/><rect width=".744" height="76.196" x="39.429" y="84.408" ry=".328" style="fill:green;stroke:#000;stroke-width:4.92073;stroke-linecap:round;stroke-linejoin:miter;stroke-dasharray:none;stroke-opacity:1"/></g><path d="M-224.307 305.325a48.636 40.98 0 0 1-15.606-52.587 48.636 40.98 0 0 1 59.966-19.63 48.636 40.98 0 0 1 30.62 47.672 48.636 40.98 0 0 1-52.298 31.567" style="fill:#fca;fill-opacity:1;stroke:#000;stroke-width:4.09501;stroke-linecap:round;stroke-linejoin:miter;stroke-dasharray:none;stroke-opacity:1" transform="matrix(-1 0 0 1 -146.035 -157.923)"/><path d="M179.743 235.434c-6.059.44-33.982 14.664-28.88 41.64 5.684 30.054 40.767 35.282 49.42 33.418-15.676-5.695-31.326-14.611-34.147-31.595-4.278-25.751 25.79-48.304 13.607-43.463z" style="fill:#6c5d53;fill-opacity:.384296;stroke-width:4.98097;stroke-linecap:round" transform="translate(-146.035 -157.923)"/><path d="M297.401-191.353a63.903 16.569 0 0 1-1.784 12.25" style="fill:none;fill-opacity:1;stroke:#000;stroke-width:2.97553;stroke-linecap:round;stroke-linejoin:miter;stroke-dasharray:none;stroke-opacity:1" transform="matrix(.04579 .99895 -.99168 .1287 -146.035 -157.923)"/><path d="M179.576 273.62a4.358 9.262 0 0 1-2.054-12.347 4.358 9.262 0 0 1 5.81-4.369 4.358 9.262 0 0 1 2.058 12.342 4.358 9.262 0 0 1-5.807 4.381M212.286 274.209a4.358 9.262 0 0 1-2.053-12.347 4.358 9.262 0 0 1 5.808-4.369 4.358 9.262 0 0 1 2.06 12.342 4.358 9.262 0 0 1-5.808 4.381" style="fill:#000;fill-opacity:1;stroke:none;stroke-width:4.43134;stroke-linecap:round;stroke-linejoin:miter;stroke-dasharray:none;stroke-opacity:1" transform="translate(-146.035 -157.923)"/></svg>