<?xml version="1.0" encoding="UTF-8" standalone="no"?>
<!-- Created with Inkscape (http://www.inkscape.org/) -->

<svg
   width="117.02271mm"
   height="146.39429mm"
   viewBox="0 0 117.02271 146.39429"
   version="1.1"
   id="svg1"
   xmlns="http://www.w3.org/2000/svg"
   xmlns:svg="http://www.w3.org/2000/svg">
  <defs
     id="defs1" />
  <g
     id="layer6"
     transform="translate(-3.4136274,-151.95685)">
    <g
       id="g17">
      <g
         id="g15">
        <g
           id="g7-7-2"
           transform="matrix(0.44700219,-0.3614561,0.52412564,0.64817088,-34.395895,133.6095)">
          <rect
             style="fill:#2bbe69;fill-opacity:1;stroke:#000000;stroke-width:5.29617;stroke-linecap:round;stroke-linejoin:miter;stroke-dasharray:none;stroke-opacity:1"
             id="rect15"
             width="14.864922"
             height="65.890289"
             x="150.35941"
             y="67.329498"
             ry="0.31944773"
             transform="matrix(0.87337753,0.48704383,-0.76086701,0.64890784,0,0)" />
          <path
             style="fill:#2bbe69;fill-opacity:1;stroke:#000000;stroke-width:5.87928;stroke-linecap:round;stroke-linejoin:miter;stroke-dasharray:none;stroke-opacity:1"
             id="path7-7-5"
             d="M 26.572975,159.0403 A 31.238609,53.7841 0 0 1 11.85534,87.342078 31.238609,53.7841 0 0 1 53.4918,61.968662 31.238609,53.7841 0 0 1 68.248681,133.64297 31.238609,53.7841 0 0 1 26.626131,159.08395" />
          <rect
             style="fill:#008000;stroke:#000000;stroke-width:4.92073;stroke-linecap:round;stroke-linejoin:miter;stroke-dasharray:none;stroke-opacity:1"
             id="rect7-5-8"
             width="0.74361008"
             height="76.19577"
             x="39.429451"
             y="84.407578"
             ry="0.32751542" />
        </g>
      </g>
      <path
         style="fill:#ff0000;fill-opacity:1;stroke:#000000;stroke-width:4.09501;stroke-linecap:round;stroke-linejoin:miter;stroke-dasharray:none;stroke-opacity:1"
         id="path15"
         d="M 37.573801,291.65598 A 56.46209,47.1842 0 0 1 10.972477,228.75591 56.46209,47.1842 0 0 1 86.228116,206.49609 56.46209,47.1842 0 0 1 112.90038,269.37518 56.46209,47.1842 0 0 1 37.669879,291.69427" />
      <path
         id="path15-4"
         style="fill:#593737;fill-opacity:0.408355;stroke:none;stroke-width:3.89896;stroke-linecap:round;stroke-linejoin:miter;stroke-dasharray:none;stroke-opacity:1"
         d="m 61.755025,203.80265 a 53.349091,45.270316 0 0 0 -49.034314,25.75847 53.349091,45.270316 0 0 0 25.134825,60.34869 l 0.09082,0.0372 a 53.349091,45.270316 0 0 0 37.407553,2.67039 51.265776,43.502484 0 0 1 -25.03912,-4.03188 l -0.0874,-0.0357 A 51.265776,43.502484 0 0 1 26.074488,230.55774 51.265776,43.502484 0 0 1 77.607292,206.13545 53.349091,45.270316 0 0 0 61.755025,203.8027 Z" />
      <path
         style="fill:none;fill-opacity:1;stroke:#000000;stroke-width:3.33873;stroke-linecap:round;stroke-linejoin:miter;stroke-dasharray:none;stroke-opacity:1"
         id="path8-2-9"
         d="m -250.6237,-89.361208 a 58.918327,22.62491 0 0 1 -1.64521,16.72837"
         transform="matrix(0.06812365,-0.99767689,-0.99622705,-0.08678502,0,0)" />
      <path
         style="fill:#ffffff;fill-opacity:1;stroke:none;stroke-width:2.04314;stroke-linecap:round;stroke-linejoin:miter;stroke-dasharray:none;stroke-opacity:1"
         id="path16-3"
         d="m 19.027189,-231.47615 a 21.595846,18.028265 0 0 1 21.487844,-16.90953 21.595846,18.028265 0 0 1 21.611974,16.79893"
         transform="scale(1,-1)" />
      <path
         style="fill:#ffffff;fill-opacity:1;stroke:none;stroke-width:2.04314;stroke-linecap:round;stroke-linejoin:miter;stroke-dasharray:none;stroke-opacity:1"
         id="path16-3-3"
         d="m 64.140325,-231.19969 a 21.595846,18.028265 0 0 1 21.487844,-16.90953 21.595846,18.028265 0 0 1 21.611971,16.79893"
         transform="scale(1,-1)" />
      <path
         style="fill:#000000;stroke:#000000;stroke-width:2.83017;stroke-linecap:round;stroke-linejoin:miter;stroke-dasharray:none;stroke-opacity:1"
         id="path3-0-9"
         d="m 39.649568,239.16856 a 3.3484082,3.3849454 0 0 1 -1.577556,-4.51238 3.3484082,3.3849454 0 0 1 4.462935,-1.5969 3.3484082,3.3849454 0 0 1 1.581762,4.51088 3.3484082,3.3849454 0 0 1 -4.461443,1.60115" />
      <path
         style="fill:#000000;stroke:#000000;stroke-width:2.83017;stroke-linecap:round;stroke-linejoin:miter;stroke-dasharray:none;stroke-opacity:1"
         id="path3-0-9-9"
         d="m 85.833574,239.03892 a 3.3484082,3.3849454 0 0 1 -1.577556,-4.51238 3.3484082,3.3849454 0 0 1 4.462934,-1.5969 3.3484082,3.3849454 0 0 1 1.581763,4.51088 3.3484082,3.3849454 0 0 1 -4.461444,1.60115" />
      <rect
         style="fill:#000000;fill-opacity:1;stroke:none;stroke-width:5.5668;stroke-linecap:round;stroke-linejoin:miter;stroke-dasharray:none;stroke-opacity:1"
         id="rect16"
         width="45.517376"
         height="4.0131817"
         x="17.923872"
         y="228.62332"
         ry="0.29040173" />
      <rect
         style="fill:#000000;fill-opacity:1;stroke:none;stroke-width:5.5668;stroke-linecap:round;stroke-linejoin:miter;stroke-dasharray:none;stroke-opacity:1"
         id="rect16-0"
         width="45.517376"
         height="4.0131817"
         x="63.698372"
         y="228.73013"
         ry="0.29040173" />
    </g>
  </g>
</svg>
