<svg xmlns="http://www.w3.org/2000/svg" width="442.291" height="553.301" viewBox="0 0 117.023 146.394"><g transform="translate(-3.414 -151.957)"><g transform="matrix(.447 -.36146 .52413 .64817 -34.396 133.61)"><rect width="14.865" height="65.89" x="150.359" y="67.329" ry=".319" style="fill:#2bbe69;fill-opacity:1;stroke:#000;stroke-width:5.29617;stroke-linecap:round;stroke-linejoin:miter;stroke-dasharray:none;stroke-opacity:1" transform="matrix(.87338 .48704 -.76087 .6489 0 0)"/><path d="M26.573 159.04a31.239 53.784 0 0 1-14.718-71.698A31.239 53.784 0 0 1 53.492 61.97a31.239 53.784 0 0 1 14.757 71.674 31.239 53.784 0 0 1-41.623 25.44" style="fill:#2bbe69;fill-opacity:1;stroke:#000;stroke-width:5.87928;stroke-linecap:round;stroke-linejoin:miter;stroke-dasharray:none;stroke-opacity:1"/><rect width=".744" height="76.196" x="39.429" y="84.408" ry=".328" style="fill:green;stroke:#000;stroke-width:4.92073;stroke-linecap:round;stroke-linejoin:miter;stroke-dasharray:none;stroke-opacity:1"/></g><path d="M37.574 291.656a56.462 47.184 0 0 1-26.602-62.9 56.462 47.184 0 0 1 75.256-22.26 56.462 47.184 0 0 1 26.672 62.88 56.462 47.184 0 0 1-75.23 22.318" style="fill:red;fill-opacity:1;stroke:#000;stroke-width:4.09501;stroke-linecap:round;stroke-linejoin:miter;stroke-dasharray:none;stroke-opacity:1"/><path d="M61.755 203.803a53.35 45.27 0 0 0-49.034 25.758 53.35 45.27 0 0 0 25.135 60.349l.09.037a53.35 45.27 0 0 0 37.408 2.67 51.266 43.502 0 0 1-25.04-4.031l-.087-.036a51.266 43.502 0 0 1-24.153-57.992 51.266 43.502 0 0 1 51.533-24.423 53.35 45.27 0 0 0-15.852-2.332Z" style="fill:#593737;fill-opacity:.408355;stroke:none;stroke-width:3.89896;stroke-linecap:round;stroke-linejoin:miter;stroke-dasharray:none;stroke-opacity:1"/><path d="M-250.624-89.361a58.918 22.625 0 0 1-1.645 16.728" style="fill:none;fill-opacity:1;stroke:#000;stroke-width:3.33873;stroke-linecap:round;stroke-linejoin:miter;stroke-dasharray:none;stroke-opacity:1" transform="matrix(.06812 -.99768 -.99623 -.08679 0 0)"/><path d="M19.027-231.476a21.596 18.028 0 0 1 21.488-16.91 21.596 18.028 0 0 1 21.612 16.8M64.14-231.2a21.596 18.028 0 0 1 21.488-16.91 21.596 18.028 0 0 1 21.612 16.8" style="fill:#fff;fill-opacity:1;stroke:none;stroke-width:2.04314;stroke-linecap:round;stroke-linejoin:miter;stroke-dasharray:none;stroke-opacity:1" transform="scale(1 -1)"/><path d="M39.65 239.169a3.348 3.385 0 0 1-1.578-4.513 3.348 3.385 0 0 1 4.463-1.597 3.348 3.385 0 0 1 1.582 4.511 3.348 3.385 0 0 1-4.462 1.601M85.834 239.039a3.348 3.385 0 0 1-1.578-4.512 3.348 3.385 0 0 1 4.463-1.597 3.348 3.385 0 0 1 1.582 4.51 3.348 3.385 0 0 1-4.462 1.602" style="fill:#000;stroke:#000;stroke-width:2.83017;stroke-linecap:round;stroke-linejoin:miter;stroke-dasharray:none;stroke-opacity:1"/><rect width="45.517" height="4.013" x="17.924" y="228.623" ry=".29" style="fill:#000;fill-opacity:1;stroke:none;stroke-width:5.5668;stroke-linecap:round;stroke-linejoin:miter;stroke-dasharray:none;stroke-opacity:1"/><rect width="45.517" height="4.013" x="63.698" y="228.73" ry=".29" style="fill:#000;fill-opacity:1;stroke:none;stroke-width:5.5668;stroke-linecap:round;stroke-linejoin:miter;stroke-dasharray:none;stroke-opacity:1"/></g></svg>